<svg width="22" height="22" viewBox="0 0 22 22" fill="none" xmlns="http://www.w3.org/2000/svg">
<path d="M18.0656 0.996643L3.92496 1.00334C2.30966 1.00411 0.995893 2.31912 0.996658 3.93442L1.00336 18.075C1.00412 19.6903 2.31914 21.0041 3.93443 21.0033L9.83287 21.0005L9.82952 13.9302L7.48577 13.9313L7.4841 10.4157L9.82785 10.4146L9.82672 8.0318C9.82581 6.09317 11.4021 4.51543 13.3407 4.51451L16.8954 4.51282L16.897 8.02845L13.3423 8.03013L13.3435 10.4129L16.8982 10.4113L16.3139 13.9272L13.3451 13.9286L13.3485 20.9989L18.0751 20.9966C19.6904 20.9959 21.0041 19.6809 21.0034 18.0656L20.9967 3.92494C20.9959 2.30965 19.6809 0.995877 18.0656 0.996643Z" fill="white"/>
</svg>
