<svg width="21" height="20" viewBox="0 0 21 20" fill="none" xmlns="http://www.w3.org/2000/svg">
<path d="M10.4063 0.499978C4.88152 0.554502 0.449781 4.96012 0.502868 10.3393C0.545349 14.6437 3.44623 18.2657 7.43124 19.5135C7.93212 19.6002 8.11247 19.2969 8.10992 19.0384C8.10764 18.8071 8.09325 18.1942 8.08107 17.3823C5.30534 17.997 4.70001 16.1087 4.70001 16.1087C4.23394 14.989 3.5735 14.6948 3.5735 14.6948C2.66175 14.0999 3.63766 14.1027 3.63766 14.1027C4.64245 14.1605 5.17916 15.0912 5.17916 15.0912C6.08548 16.5717 7.53033 16.1271 8.09951 15.8728C8.18329 15.2416 8.43654 14.8104 8.71996 14.5639C6.49683 14.3421 4.15451 13.5275 4.11768 9.79553C4.10719 8.73242 4.48609 7.85961 5.121 7.1718C5.00608 6.92675 4.65882 5.93966 5.18305 4.59288C5.18305 4.59288 6.01794 4.32359 7.94278 5.56442C8.7406 5.3401 9.5895 5.22433 10.4394 5.21098C11.2894 5.20755 12.1404 5.30655 12.9425 5.51507C14.83 4.23662 15.67 4.48938 15.67 4.48938C16.2208 5.82556 15.893 6.8193 15.7955 7.06645C16.4397 7.74164 16.8357 8.6068 16.8462 9.66991C16.8832 13.4118 14.5539 14.2585 12.3314 14.52C12.6842 14.8089 13.0151 15.403 13.0241 16.3157C13.037 17.6192 13.0348 18.6667 13.0379 18.9831C13.0405 19.2384 13.2185 19.5414 13.73 19.4389C17.718 18.1207 20.5443 14.4397 20.5019 10.1419C20.4488 4.76275 15.9285 0.445479 10.4063 0.499978Z" fill="white"/>
</svg>
